<svg xmlns="http://www.w3.org/2000/svg" width="17.734" height="32.801" viewBox="0 0 17.734 32.801"><path d="M39.143.007,34.89,0c-4.779,0-7.867,3.168-7.867,8.072v3.722H22.746a.669.669,0,0,0-.669.669v5.393a.669.669,0,0,0,.669.669h4.277V32.133a.669.669,0,0,0,.669.669h5.58a.669.669,0,0,0,.669-.669V18.525h5a.669.669,0,0,0,.669-.669l0-5.393a.669.669,0,0,0-.669-.669h-5V8.639c0-1.516.361-2.286,2.337-2.286h2.865a.669.669,0,0,0,.668-.669V.676A.669.669,0,0,0,39.143.007Z" transform="translate(-22.077)" fill="#1490fb"/></svg>