<svg xmlns="http://www.w3.org/2000/svg" xmlns:xlink="http://www.w3.org/1999/xlink" width="30.897" height="30.897" viewBox="0 0 30.897 30.897"><defs><linearGradient id="a" x1="0.893" y1="0.086" x2="0.061" y2="0.92" gradientUnits="objectBoundingBox"><stop offset="0" stop-color="#de2b54"/><stop offset="0.496" stop-color="#ee1616"/><stop offset="1" stop-color="#ff0039"/></linearGradient></defs><g transform="translate(0)"><path d="M22.37,0H8.526A8.536,8.536,0,0,0,0,8.526V22.37A8.536,8.536,0,0,0,8.526,30.9H22.37A8.536,8.536,0,0,0,30.9,22.37V8.526A8.536,8.536,0,0,0,22.37,0Zm5.785,22.37a5.792,5.792,0,0,1-5.785,5.785H8.526A5.791,5.791,0,0,1,2.741,22.37V8.526A5.792,5.792,0,0,1,8.526,2.741H22.37a5.792,5.792,0,0,1,5.785,5.785V22.37Z" transform="translate(0)" fill="url(#a)"/><path d="M48.929,40.97a7.961,7.961,0,1,0,7.961,7.961A7.97,7.97,0,0,0,48.929,40.97Zm0,13.181a5.22,5.22,0,1,1,5.22-5.22A5.226,5.226,0,0,1,48.929,54.151Z" transform="translate(-33.481 -33.483)" fill="url(#a)"/><path d="M120.931,28.251a2.009,2.009,0,1,0,1.422.588A2.018,2.018,0,0,0,120.931,28.251Z" transform="translate(-97.188 -23.088)" fill="url(#a)"/></g></svg>