<svg xmlns="http://www.w3.org/2000/svg" width="38.194" height="31.032" viewBox="0 0 38.194 31.032"><path d="M38.194,51.674a16.325,16.325,0,0,1-4.512,1.237,7.786,7.786,0,0,0,3.445-4.328,15.648,15.648,0,0,1-4.965,1.9,7.83,7.83,0,0,0-13.544,5.354,8.063,8.063,0,0,0,.181,1.786,22.163,22.163,0,0,1-16.139-8.19A7.832,7.832,0,0,0,5.065,59.893a7.733,7.733,0,0,1-3.538-.964v.086A7.866,7.866,0,0,0,7.8,66.708a7.815,7.815,0,0,1-2.053.258,6.923,6.923,0,0,1-1.482-.134,7.9,7.9,0,0,0,7.316,5.455,15.733,15.733,0,0,1-9.708,3.34A14.666,14.666,0,0,1,0,75.519a22.044,22.044,0,0,0,12.012,3.514C26.421,79.032,34.3,67.1,34.3,56.751c0-.346-.012-.68-.029-1.012A15.62,15.62,0,0,0,38.194,51.674Z" transform="translate(0 -48)" fill="#03a9f4"/></svg>