<svg xmlns="http://www.w3.org/2000/svg" width="37.897" height="26.534" viewBox="0 0 37.897 26.534"><g transform="translate(0 0)"><path d="M37.116,4.152a4.748,4.748,0,0,0-3.34-3.34C30.811,0,18.948,0,18.948,0S7.086,0,4.12.781A4.845,4.845,0,0,0,.78,4.152C0,7.117,0,13.267,0,13.267s0,6.181.78,9.115a4.749,4.749,0,0,0,3.34,3.34c3,.812,14.828.812,14.828.812s11.862,0,14.828-.781a4.748,4.748,0,0,0,3.34-3.34c.78-2.966.78-9.115.78-9.115S37.928,7.117,37.116,4.152Zm0,0" transform="translate(0 0)" fill="red"/><path d="M204.969,113.847l9.864-5.681-9.864-5.681Zm0,0" transform="translate(-189.797 -94.899)" fill="#fff"/></g></svg>